HIERARCHY
ROOT hip
{
  OFFSET 0 0 0
  CHANNELS 6 Xposition Yposition Zposition Zrotation Yrotation Xrotation
  JOINT abdomen
  {
    OFFSET 0 20.6881 -0.73152
    CHANNELS 3 Zrotation Xrotation Yrotation
    JOINT chest
    {
      OFFSET 0 11.7043 -0.48768
      CHANNELS 3 Zrotation Xrotation Yrotation
      JOINT neck
      {
        OFFSET 0 22.1894 -2.19456
        CHANNELS 3 Zrotation Xrotation Yrotation
        JOINT head
        {
          OFFSET -0.24384 7.07133 1.2192
          CHANNELS 3 Zrotation Xrotation Yrotation
          JOINT leftEye
          {
            OFFSET 4.14528 8.04674 8.04672
            CHANNELS 3 Zrotation Xrotation Yrotation
            End Site
            {
              OFFSET 1 0 0
            }
          }
          JOINT rightEye
          {
            OFFSET -3.6576 8.04674 8.04672
            CHANNELS 3 Zrotation Xrotation Yrotation
            End Site
            {
              OFFSET 1 0 0
            }
          }
        }
      }
      JOINT rCollar
      {
        OFFSET -2.68224 19.2634 -4.8768
        CHANNELS 3 Zrotation Xrotation Yrotation
        JOINT rShldr
        {
          OFFSET -8.77824 -1.95073 1.46304
          CHANNELS 3 Zrotation Xrotation Yrotation
          JOINT rForeArm
          {
            OFFSET -28.1742 -1.7115 0.48768
            CHANNELS 3 Zrotation Xrotation Yrotation
            JOINT rHand
            {
              OFFSET -22.5879 0.773209 7.07136
              CHANNELS 3 Zrotation Xrotation Yrotation
              JOINT rThumb1
              {
                OFFSET -1.2192 -0.487915 3.41376
                CHANNELS 3 Zrotation Xrotation Yrotation
                JOINT rThumb2
                {
                  OFFSET -3.37035 -0.52449 3.41376
                  CHANNELS 3 Zrotation Xrotation Yrotation
                  End Site
                  {
                    OFFSET -1.78271 -1.18214 1.43049
                  }
                }
              }
              JOINT rIndex1
              {
                OFFSET -7.75947 0.938293 5.60832
                CHANNELS 3 Zrotation Xrotation Yrotation
                JOINT rIndex2
                {
                  OFFSET -2.54057 -0.884171 1.56538
                  CHANNELS 3 Zrotation Xrotation Yrotation
                  End Site
                  {
                    OFFSET -1.62519 -0.234802 1.16502
                  }
                }
              }
              JOINT rMid1
              {
                OFFSET -8.24714 1.18213 3.41376
                CHANNELS 3 Zrotation Xrotation Yrotation
                JOINT rMid2
                {
                  OFFSET -3.10165 -0.590103 1.0647
                  CHANNELS 3 Zrotation Xrotation Yrotation
                  End Site
                  {
                    OFFSET -2.48547 -0.328903 0.83742
                  }
                }
              }
              JOINT rRing1
              {
                OFFSET -8.82822 0.546677 1.51678
                CHANNELS 3 Zrotation Xrotation Yrotation
                JOINT rRing2
                {
                  OFFSET -2.60934 -0.819778 -0.0198488
                  CHANNELS 3 Zrotation Xrotation Yrotation
                  End Site
                  {
                    OFFSET -2.33842 -0.294052 0.168128
                  }
                }
              }
              JOINT rPinky1
              {
                OFFSET -8.27202 -0.0477905 -0.4584
                CHANNELS 3 Zrotation Xrotation Yrotation
                JOINT rPinky2
                {
                  OFFSET -1.82734 -0.647385 -0.700984
                  CHANNELS 3 Zrotation Xrotation Yrotation
                  End Site
                  {
                    OFFSET -1.69225 -0.51767 -0.607171
                  }
                }
              }
            }
          }
        }
      }
      JOINT lCollar
      {
        OFFSET 2.68224 19.2634 -4.8768
        CHANNELS 3 Zrotation Xrotation Yrotation
        JOINT lShldr
        {
          OFFSET 8.77824 -1.95073 1.46304
          CHANNELS 3 Zrotation Xrotation Yrotation
          JOINT lForeArm
          {
            OFFSET 28.1742 -1.7115 0.48768
            CHANNELS 3 Zrotation Xrotation Yrotation
            JOINT lHand
            {
              OFFSET 22.5879 0.773209 7.07136
              CHANNELS 3 Zrotation Xrotation Yrotation
              JOINT lThumb1
              {
                OFFSET 1.2192 -0.487915 3.41376
                CHANNELS 3 Zrotation Xrotation Yrotation
                JOINT lThumb2
                {
                  OFFSET 3.37035 -0.52449 3.41376
                  CHANNELS 3 Zrotation Xrotation Yrotation
                  End Site
                  {
                    OFFSET 1.78271 -1.18214 1.43049
                  }
                }
              }
              JOINT lIndex1
              {
                OFFSET 7.75947 0.938293 5.60832
                CHANNELS 3 Zrotation Xrotation Yrotation
                JOINT lIndex2
                {
                  OFFSET 2.54057 -0.884171 1.56538
                  CHANNELS 3 Zrotation Xrotation Yrotation
                  End Site
                  {
                    OFFSET 1.62519 -0.234802 1.16502
                  }
                }
              }
              JOINT lMid1
              {
                OFFSET 8.24714 1.18213 3.41376
                CHANNELS 3 Zrotation Xrotation Yrotation
                JOINT lMid2
                {
                  OFFSET 3.10165 -0.590103 1.0647
                  CHANNELS 3 Zrotation Xrotation Yrotation
                  End Site
                  {
                    OFFSET 2.48547 -0.328903 0.83742
                  }
                }
              }
              JOINT lRing1
              {
                OFFSET 8.82822 0.546677 1.51678
                CHANNELS 3 Zrotation Xrotation Yrotation
                JOINT lRing2
                {
                  OFFSET 2.60934 -0.819778 -0.0198488
                  CHANNELS 3 Zrotation Xrotation Yrotation
                  End Site
                  {
                    OFFSET 2.33842 -0.294052 0.168128
                  }
                }
              }
              JOINT lPinky1
              {
                OFFSET 8.27202 -0.0477905 -0.4584
                CHANNELS 3 Zrotation Xrotation Yrotation
                JOINT lPinky2
                {
                  OFFSET 1.82734 -0.647385 -0.700984
                  CHANNELS 3 Zrotation Xrotation Yrotation
                  End Site
                  {
                    OFFSET 1.69225 -0.51767 -0.607171
                  }
                }
              }
            }
          }
        }
      }
    }
  }
  JOINT rButtock
  {
    OFFSET -8.77824 4.35084 1.2192
    CHANNELS 3 Zrotation Xrotation Yrotation
    JOINT rThigh
    {
      OFFSET 0 -1.70687 -2.19456
      CHANNELS 3 Zrotation Xrotation Yrotation
      JOINT rShin
      {
        OFFSET 0 -36.8199 0.73152
        CHANNELS 3 Zrotation Xrotation Yrotation
        JOINT rFoot
        {
          OFFSET 0.73152 -45.1104 -5.12064
          CHANNELS 3 Zrotation Xrotation Yrotation
          End Site
          {
            OFFSET -1.1221 -3.69964 12.103
          }
        }
      }
    }
  }
  JOINT lButtock
  {
    OFFSET 8.77824 4.35084 1.2192
    CHANNELS 3 Zrotation Xrotation Yrotation
    JOINT lThigh
    {
      OFFSET 0 -1.70687 -2.19456
      CHANNELS 3 Zrotation Xrotation Yrotation
      JOINT lShin
      {
        OFFSET 0 -36.8199 0.73152
        CHANNELS 3 Zrotation Xrotation Yrotation
        JOINT lFoot
        {
          OFFSET -0.73152 -45.1104 -5.12064
          CHANNELS 3 Zrotation Xrotation Yrotation
          End Site
          {
            OFFSET 1.1221 -3.69964 12.103
          }
        }
      }
    }
  }
}
MOTION
Frames:	4
Frame Time:	0.03333
-1.0815147310495377 34.632688760757446 0.05733753787353635 -2.4660114118593657 1.3446947735067298 1.0918393561638593 -0.4250851472887945 7.7596199679269295 1.6039736635988797 2.00820688368186 -3.766906956983154 0.9205361840675298 -2.5815918729943217 7.330020705926992 -0.5517174414702127 3.6724253770811908 -12.143610183871818 -1.7477905536494913 -0.10672898286776221 0.7894176829010296 -0.7350939867807448 -0.4118845260572755 0.5621531167483459 -0.039544253983754905 0.012663010638644967 0.9035376574923663 0.40800273745288684 20.206412857545505 13.719257985765596 7.616681184071488 -11.329632634819303 -14.251881259885069 28.753310311285723 -2.3517412798279946 -4.753908992524547 -1.8683363488676348 0.1691913363018999 0.6188021187550499 0.17043600487600247 0.3909118165609431 0.23804215109571428 0.5997691029417218 0.424358799359246 -0.33386927826417007 -0.2525429361883422 3.969349068227278 1.6930264170494465 0.6413309641238081 -0.0107276792053645 -0.6070074492754957 0.38638033289218343 1.7633467363710185 1.1041323092877071 -0.3686710931173684 0.38578658668206833 -0.34274524249273386 -0.36200381463123105 4.618402308259726 -0.24267379308534984 -0.9072327898333432 0.0987213131075429 -0.11850136752112793 0.5691012867641001 0.44626769833911967 -0.008818681352985604 -0.12339156952344549 0.16033218074199665 0.8409158151390449 0.25198270059384253 -24.67783376373479 14.046307933793317 -9.859900576384913 11.085200654992057 -13.692812347072953 -26.800639482301825 1.7488846645771627 -5.146666214141437 2.6111757701671743 0.894646085214332 0.06427256033749601 -0.2888666826072634 -0.2784888238132373 0.7473244009850046 0.4347024271661427 -0.13874104564108722 0.017686114515193495 -0.4552903782327065 -3.7340234381109507 2.806129219316613 -0.008668217088046984 0.4888591571777325 0.6429285346985034 -0.9984700298795504 -0.7066930997164798 -0.615663166583753 -0.6362269985448102 -0.0837069298058417 0.7163681693975086 0.45991281547521845 -3.927909029872341 -0.3016102681337734 0.4820260865216636 1.0648443141298534 -0.5224236672545272 -0.4658437141914638 -0.9002883017164385 0.38154957487998614 -0.18904050636019162 -0.8468273438656909 0.7081646319566473 -0.7519548957163031 -13.643047588780242 -16.66437579171986 -12.491212171112107 -2.6702443133265024 27.431342565355386 2.6258773254688035 -1.3194736596662229 -4.518512499195582 -4.29995412971799 0.9303885185018616 -0.9473308027380782 -0.042010212408287353 15.224192839182233 -15.847630308506195 13.630874484131986 1.443569765870598 26.901659687673607 -1.8777073684088923 3.363577456304731 -3.9286402870003556 5.890414904374234
-1.744086854159832 41.215938329696655 0.06897824350744486 -3.022011221856618 1.617341197578241 1.101352955904041 -0.9895388104878182 8.905256988923277 1.9173593913051665 2.1957030469181147 -4.862959792812971 1.134378094479816 -2.636083335636095 8.8803225295845 -1.0171250907718534 4.351942114585542 -14.091937866317235 -2.430486530769072 -0.3054392294938002 0.5776051924458833 -0.3206017158426996 -0.12795825801489982 0.27759398899068627 -0.19453664752750982 -0.19993364423015703 0.5588613390943701 0.11267325514776332 24.32147547397854 15.836900081320104 8.91988810789909 -13.355597370012962 -16.76466687439774 34.061374749288206 -2.8162857106124224 -5.719654625595215 -2.1872993529180604 -0.08312044067171974 0.5351139452889992 -0.13047721043645935 0.32978944085427747 0.009263897629079365 0.2676578246564631 0.6602289236184697 -0.5341226073639954 -0.388325015814933 4.801305382722559 2.4344375817605126 0.46566063310519573 -0.23872906535497657 -0.9114910926157288 0.4768684932855106 1.8976666752675504 0.8549002539386757 -0.05723762557494154 0.28149183921179505 -0.3452380214159505 -0.42127921113679 5.610272561132046 0.12126467262828731 -0.7974053223310952 0.20818056404441854 -0.35208691356490146 0.18418277443685807 0.32660491851461193 -0.35730181635705904 -0.04405097154666667 -0.03243307323252621 0.7464006178997604 0.1575889526557374 -28.975964232944385 16.57256609644384 -12.191802291108136 12.985081805654573 -16.21586288213451 -32.120030081495486 2.2331090047945126 -6.510573029122943 2.9874532394207036 0.6639625824952338 -0.04420242298738377 -0.733923409750881 -0.4968665401233675 0.3897045539447169 0.34480486469261 -0.1369094343656131 0.028149017168514222 -0.22161850766916905 -4.42317074234502 3.3978590295226714 -0.03900580962755444 0.2175369893924104 0.6208762017460595 -0.9646659295732763 -0.9027092836120907 -0.07924502868925154 -0.17301594875241613 -0.11122653570418999 0.5825263437428775 0.18561583350209135 -4.64542168284265 0.1449536896605956 0.3460382474463262 1.2317669870906776 -0.24846344562399345 -0.23645303821620206 -1.2944501944248235 -0.03416994231369285 -0.02555675360518943 -0.65002590165894 0.7316867896019663 -0.8248913375725487 -16.4304469352888 -19.888885900768074 -14.686651828860352 -3.3427078132957573 32.65015521392602 2.844594923731421 -1.7917216900607786 -5.30806529177613 -5.408722216461432 0.9201065224800536 -0.5267047017602442 -0.19737615193259717 18.34913586560459 -18.357480649223053 15.950655174399374 1.6178809959660836 32.2262805042242 -2.492731325335867 3.7949239660717233 -4.936120510333916 7.146441015849504
-2.1582290530204773 46.15274965763092 0.04500349750742316 -3.4639199788448 1.7428459235772251 1.1828963432490018 -1.3685740753404463 9.69661978163388 2.1888148011401567 2.252690303371293 -5.647887693551775 1.2884165760667634 -2.7866975445713384 10.013736927061109 -1.3535923755611408 4.829083762077 -15.58192228941436 -2.8640298001278692 -0.5175232199684546 0.49641985642381925 -0.002568471293042139 0.06985479924095338 0.0770113433872458 -0.32622469575733903 -0.36821034883308346 0.3269398112273541 -0.09006906425472345 27.418804045586537 17.45800449968761 9.906219504241353 -14.913926373492528 -18.723551467979057 38.12448353179954 -3.1930540997125467 -6.40570401215386 -2.5459478904803756 -0.2551010287954971 0.5104190761797008 -0.3313892525847943 0.3617099030535089 -0.2848089899513205 -0.061086757337361075 0.8765337575567804 -0.6669305664938687 -0.5045670981648809 5.414723818307757 3.0087013175983786 0.2939379913442921 -0.53095414664105 -1.044495899931916 0.5650591487967748 2.0899956242284126 0.6691447217237164 0.2636298273151539 0.27194771706376003 -0.2658864044230497 -0.450960731990006 6.373712259855166 0.40401353345162916 -0.6538852787051146 0.25047184140509454 -0.49690896200141565 -0.14017778660516997 0.2021144756073745 -0.6274475907795523 0.018558677851769238 -0.19557190143444275 0.641685493630414 0.15399878111239657 -32.18147446326892 18.42653215418459 -13.948525238088122 14.398950600641076 -18.127264000605894 -36.113651934485695 2.5477267278723406 -7.508191313068652 3.2892760971923938 0.4523374953554396 -0.12539717719998306 -1.0674608101904972 -0.6634578955485932 0.12185025462791013 0.26797516164860424 -0.15720120601820695 0.04637996600204185 -0.10767814570866258 -4.972878880899632 3.8124416937455137 -0.047435517043393105 0.037893996236936525 0.5463089988646205 -0.9428951284806838 -1.0601843108469065 0.3370199965035293 0.07600303671102267 -0.11541641653295646 0.5194562168644211 0.05230772309807328 -5.265021012739887 0.48115913274474803 0.31256098236400787 1.2845642426531705 -0.013383168709258188 -0.04851547400483526 -1.5398746861158372 -0.30151432532027583 0.028646293626709493 -0.5099294369935755 0.6853869115700068 -0.9175390116823635 -18.55502338039816 -22.212103029961625 -16.304711690405327 -3.7723228701081513 36.53034811536983 3.047421660003181 -2.112225328655865 -5.894680357510907 -6.192844581764997 0.8899769572255407 -0.17360249124739097 -0.3080633027955545 20.78182385172052 -20.20066013071706 17.701620271909043 1.834397352325253 36.2114090169815 -2.9275061631793826 4.087546345587994 -5.77198582746856 8.174112559030092
-2.428231295198202 49.84504580497742 -0.014410121366381645 -3.78434485682102 1.7881435247093382 1.259854645948474 -1.6204676099491084 10.235677093951503 2.40025269840801 2.2373452161838014 -6.194094506383109 1.3909091140915053 -2.9576904766689616 10.81432474401946 -1.579700345227418 5.168280347769942 -16.70727108725483 -3.1141908145648753 -0.7025473883336936 0.47758166108439515 0.23023425769861122 0.21766681634749355 -0.06158845607623967 -0.42737395435183634 -0.5000362281459294 0.1716451084416534 -0.24151506216482774 29.738404589614568 18.686714550237884 10.647008161242596 -16.10718432715585 -20.242013511046903 41.21296530088508 -3.498813707767103 -6.900774479329779 -2.8887418514317984 -0.35606814011865195 0.5283173734563077 -0.46508828459708984 0.41899032403246883 -0.565860362002929 -0.36445387819170866 1.0549759714396543 -0.7698361175199849 -0.61398534128631 5.850809198698269 3.449978495531746 0.13561281900122138 -0.8236352230955011 -1.099136452796666 0.6405844991527198 2.2900138720908276 0.5293739183435441 0.5341087335422439 0.310217480426753 -0.14708264094859008 -0.47170780511988997 6.970270373474189 0.6053766882503022 -0.4802326816168593 0.25183630509393684 -0.5754933833318799 -0.39612162339164964 0.06397368620045506 -0.8324987275649148 0.056790981896032953 -0.3314398386733347 0.5384658072633302 0.1946252265433084 -34.57628222024796 19.78340216677369 -15.239555642172885 15.459600431568601 -19.551433574634423 -39.09368054483518 2.7661467860192395 -8.242771328114353 3.515265925930371 0.2749146872061901 -0.1976519074801232 -1.309518872394341 -0.7884016922619903 -0.07330105656404794 0.1886701286802771 -0.1782645222427478 0.06424371212640195 -0.07725322813339945 -5.412306785115219 4.112382620957454 -0.06187182888551586 -0.07720600377859116 0.45886096634303647 -0.9403578199257299 -1.1911290690763943 0.6473534834244667 0.19724369695550917 -0.10812923167857433 0.4926573826864942 -0.03230658133074875 -5.7614476993528765 0.6942988143329925 0.30234520716063734 1.2687064643911048 0.17592630302992912 0.12015764837421634 -1.695720606511899 -0.4638176559680559 0.027243756969329687 -0.41579683706951764 0.620931643672213 -1.00314337337572 -20.16376686391524 -23.91229420872871 -17.50880403163958 -4.033733846438403 39.40573822763473 3.2119353038994007 -2.3464478832212348 -6.331680983250201 -6.754666060812627 0.8647274020504432 0.11878520723786691 -0.3841017711128966 22.65042700485261 -21.55613678471548 19.03524885829988 2.0414765216855804 39.19290270290796 -3.2308468170506965 4.268876768994432 -6.444261283792228 8.986015438122216
